<?xml version="1.0" encoding="UTF-8" standalone="no"?>
<!-- Created with Inkscape (http://www.inkscape.org/) -->

<svg
   xmlns:dc="http://purl.org/dc/elements/1.1/"
   xmlns:cc="http://creativecommons.org/ns#"
   xmlns:rdf="http://www.w3.org/1999/02/22-rdf-syntax-ns#"
   xmlns:svg="http://www.w3.org/2000/svg"
   xmlns="http://www.w3.org/2000/svg"
   xmlns:sodipodi="http://sodipodi.sourceforge.net/DTD/sodipodi-0.dtd"
   xmlns:inkscape="http://www.inkscape.org/namespaces/inkscape"
   width="998.0"
   height="387.0"
   id="svg2"
   version="1.1"
   inkscape:version="0.48.4 r9939"
   sodipodi:docname="birds-on-branch-elearning.svg">
  <defs
     id="defs4" />
  <sodipodi:namedview
     id="base"
     pagecolor="#ffffff"
     bordercolor="#666666"
     borderopacity="1.0"
     inkscape:pageopacity="0.0"
     inkscape:pageshadow="2"
     inkscape:zoom="1.4142136"
     inkscape:cx="175.2461"
     inkscape:cy="182.00463"
     inkscape:document-units="px"
     inkscape:current-layer="g4000"
     showgrid="false"
     inkscape:window-width="1366"
     inkscape:window-height="744"
     inkscape:window-x="0"
     inkscape:window-y="24"
     inkscape:window-maximized="1"
     inkscape:snap-grids="true" />
  <metadata
     id="metadata7">
    <rdf:RDF>
      <cc:Work
         rdf:about="">
        <dc:format>image/svg+xml</dc:format>
        <dc:type
           rdf:resource="http://purl.org/dc/dcmitype/StillImage" />
        <dc:title />
      </cc:Work>
    </rdf:RDF>
  </metadata>
  <g
     inkscape:label="Layer 1"
     inkscape:groupmode="layer"
     id="layer1">
    <g
       id="g4000"
       transform="matrix(0.49600001,0,0,0.5625,191.439,-128.97518)"
       inkscape:transform-center-y="22">
      <path
         style="fill:#ffffff;fill-opacity:1"
         d="m -387.39134,574.66503 0,-344.51621 1006.6113,0 1006.61144,0 0,344.51621 0,344.51621 -1006.61144,0 -1006.6113,0 0,-344.51621 z"
         id="path4004"
         inkscape:connector-curvature="0" />
      <path
         style="fill:#91b34f"
         d="m 1441.6823,915.03634 c -2.2134,-1.06843 -7.5047,-3.20328 -11.7586,-4.74415 -8.9631,-3.24671 -14.6738,-7.66297 -19.2188,-14.86275 -1.7756,-2.81275 -5.6344,-6.34154 -8.5752,-7.84177 -7.5146,-3.83372 -9.8124,-7.81505 -8.7188,-15.10742 1.5043,-10.03067 -1.2379,-16.73741 -10.5553,-25.81699 -4.5428,-4.42677 -10.8345,-10.16145 -13.9815,-12.74374 -8.1611,-6.69664 -8.6966,-11.13925 -2.2699,-18.83157 4.7326,-5.66467 4.9349,-6.3055 4.2776,-13.55446 -1.4324,-15.79658 -14.7877,-34.00629 -32.1566,-43.8451 -9.1584,-5.18791 -17.0778,-7.77262 -33.7076,-11.00148 -15.2646,-2.96374 -19.6138,-3.25285 -19.6138,-1.30371 0,2.49785 12.2319,26.13928 15.1177,29.21919 1.5771,1.68304 5.8254,4.09764 9.4406,5.36578 5.6453,1.98023 7.3864,3.53641 12.3348,11.02508 3.1691,4.79567 8.4281,11.8994 11.6866,15.78607 4.5809,5.46407 8.1344,12.57693 15.6686,31.364 11.1174,27.72152 16.4844,47.91733 13.6436,51.34021 -2.86,3.44595 -6.2184,2.44789 -9.8,-2.91225 -1.8486,-2.76673 -6.9367,-8.95415 -11.307,-13.74982 -13.9611,-15.31991 -33.7802,-38.62489 -40.2082,-47.28023 -6.9931,-9.41622 -19.2108,-33.65176 -19.2403,-38.16598 -0.013,-1.62099 1.4898,-5.78555 3.3343,-9.25455 4.2383,-7.97126 4.2084,-10.7035 -0.1898,-17.33396 -15.5284,-23.40913 -18.9322,-25.28665 -49.9914,-27.57546 -26.4329,-1.94789 -68.4463,-0.95955 -84.8232,1.9954 -6.3754,1.1503 -21.3513,4.49705 -33.28,7.4372 -44.4429,10.9542 -127.63632,26.41108 -162.77537,30.24274 -50.59976,5.51757 -137.06858,4.57711 -184.50332,-2.00672 -4.67306,-0.64862 -9.35136,-0.85124 -10.39621,-0.4503 -5.71129,2.19163 2.76274,14.71604 13.43085,19.85051 3.74181,1.80089 12.23614,4.25861 18.8763,5.4616 6.64015,1.203 23.8442,5.22791 38.23121,8.94428 20.9882,5.42155 28.94205,6.87071 40.24338,7.33218 15.98514,0.65274 20.12169,1.28899 20.12169,3.09496 0,2.20394 -11.0392,4.42923 -21.46313,4.32655 -7.27507,-0.0716 -13.77522,-1.25489 -23.47531,-4.27324 -14.08022,-4.3813 -49.69493,-12.06859 -56.00537,-12.08852 -4.8483,-0.0153 -4.95529,4.11138 -0.26603,10.25934 4.81203,6.30889 9.75218,8.45014 22.95724,9.95062 8.19851,0.93156 14.28776,2.59602 21.22731,5.80229 11.01263,5.08814 23.87171,13.50294 28.85493,18.88223 1.84448,1.99111 5.22854,4.40582 7.52013,5.36606 2.29158,0.96022 6.95282,5.36689 10.35832,9.79259 7.50794,9.75713 12.59053,14.16728 20.21373,17.53938 4.42198,1.95606 6.45436,3.95296 8.65969,8.50857 3.47221,7.17262 3.59168,9.56969 0.62483,12.53654 -2.91087,2.91087 -9.82193,2.03097 -26.8234,-3.41508 -6.91657,-2.21558 -18.14338,-4.98417 -24.94847,-6.15244 -24.74362,-4.24788 -36.65079,-10.68192 -54.31982,-29.3517 -18.19552,-19.22607 -22.12905,-25.58337 -23.2791,-37.62323 -0.66758,-6.989 -2.04967,-11.94747 -4.67426,-16.76972 -7.8465,-14.41659 -43.21155,-43.71365 -63.7113,-52.77962 -4.08232,-1.80538 -14.15761,-5.41525 -22.38954,-8.02192 -8.23193,-2.60667 -23.28223,-8.92519 -33.4451,-14.04115 -24.72248,-12.44524 -33.46375,-14.22018 -51.34336,-10.42546 -10.02274,2.12718 -32.51441,10.69209 -37.76757,14.38199 -1.95838,1.3756 -4.69141,2.50109 -6.07338,2.50109 -3.36883,0 -8.47545,3.6996 -8.47545,6.14021 0,1.08007 2.83535,3.91317 6.30076,6.29581 3.46541,2.38262 9.87232,7.56907 14.23756,11.52544 7.49777,6.79548 8.20662,7.13422 12.81485,6.12379 2.68292,-0.58828 8.24599,-1.10886 12.36235,-1.15687 9.14186,-0.10665 13.96259,3.11027 23.32479,15.56478 3.45666,4.59836 9.47925,10.50342 13.38356,13.12236 9.25485,6.20801 13.85665,11.76675 20.69848,25.00272 3.08491,5.96798 9.06324,14.94695 13.28518,19.95327 13.20207,15.65485 23.05598,29.44993 23.07988,32.31089 0.0297,3.54859 -2.43736,5.96943 -6.08332,5.96943 -1.58776,0 -9.4654,-3.22749 -17.50587,-7.17218 -18.8993,-9.27213 -35.74401,-15.8933 -53.7914,-21.14386 -10.07787,-2.93198 -16.30431,-5.60516 -20.46301,-8.78535 -7.57787,-5.79485 -11.48783,-6.82365 -14.74175,-3.8789 -2.5524,2.30989 -7.02592,18.46947 -9.35762,33.80228 -1.42613,9.37796 -4.78928,16.61346 -10.66279,22.94001 -4.74298,5.1088 -4.91786,5.13811 -10.46735,1.75431 -8.25878,-5.03579 -26.82742,-33.59779 -31.39426,-48.29019 -1.93233,-6.21664 -2.81665,-13.12912 -3.01337,-23.55468 -0.21716,-11.50887 -0.79054,-15.48576 -2.60568,-18.07265 -1.28,-1.82419 -2.32726,-5.49178 -2.32726,-8.15019 0,-5.75082 3.6685,-9.75534 11.38375,-12.42642 7.26334,-2.51464 8.2128,-4.54924 6.23893,-13.36944 -2.47046,-11.03919 -6.82444,-18.50523 -13.86505,-23.77526 -9.34207,-6.9927 -28.58373,-16.19768 -53.44339,-25.56666 -25.9243,-9.77021 -39.86172,-16.52011 -63.66644,-30.8337 -9.59133,-5.7672 -20.85381,-11.75692 -25.02772,-13.31049 -12.49743,-4.65165 -11.5822,-8.43212 4.00965,-16.56246 10.4504,-5.44932 33.2836,-12.99144 39.33064,-12.99144 2.3301,0 7.15508,1.82117 10.85262,4.09629 3.66153,2.25296 7.65202,3.90684 8.86776,3.67528 3.12989,-0.59615 3.48881,-5.79342 0.8731,-12.64257 -3.32792,-8.71404 -7.71329,-9.19515 -23.47942,-2.57589 -4.05787,1.70366 -13.04184,4.71335 -19.96438,6.68822 -20.87801,5.95609 -37.76023,15.55644 -52.91741,30.09238 -10.4565,10.02788 -12.97947,16.82518 -15.75027,42.43365 -3.64718,33.7081 1.95607,84.5626 16.11055,146.21762 1.52442,6.64016 3.08148,13.42204 3.46014,15.07084 0.8512,3.70635 -3.47342,8.40444 -7.73641,8.40452 -1.836,4e-5 -4.65222,-1.94611 -7.18969,-4.96843 -3.72083,-4.4318 -4.77616,-4.93281 -9.77012,-4.63815 -5.25449,0.31005 -5.7201,0.0399 -7.57323,-4.39534 -2.39145,-5.72357 -6.22164,-8.39483 -15.6264,-10.89823 -3.9196,-1.04333 -7.31148,-1.90414 -7.53752,-1.9129 -0.22603,-0.009 -2.16129,1.90043 -4.30058,4.24265 -3.78805,4.14738 -4.02615,4.21348 -9.12089,2.53207 -7.38505,-2.43729 -10.27607,-0.52331 -12.91355,8.54929 -1.16721,4.01508 -3.0647,8.24262 -4.21664,9.39456 -5.0971,5.09711 -16.65869,0.027 -16.65869,-7.30535 0,-2.11161 0.84678,-7.9534 1.88174,-12.98174 1.03496,-5.02836 2.2938,-13.06619 2.79742,-17.86186 0.50362,-4.79567 2.34596,-18.37781 4.09408,-30.18254 1.74813,-11.80473 4.73054,-37.15806 6.62759,-56.34073 6.18667,-62.55875 9.31345,-82.46865 13.98078,-89.02333 1.56506,-2.19792 15.13323,-11.20668 32.5943,-21.64142 53.95188,-32.24164 79.30625,-49.66355 112.84676,-77.54112 21.7875,-18.10892 33.84024,-31.72619 41.19923,-46.5472 9.52322,-19.17975 8.53907,-26.06715 -1.58137,-11.06693 -13.2396,19.62336 -28.53603,38.83126 -37.65271,47.28092 -16.82101,15.59033 -26.91888,22.67175 -88.92311,62.35996 -19.92047,12.75088 -41.04825,26.33993 -46.95061,30.1979 -31.50564,20.59309 -40.18361,25.87251 -53.65784,32.64392 -14.39008,7.23164 -24.73537,13.44193 -31.52398,18.92386 -5.36651,4.33355 -10.73157,2.85172 -10.73157,-2.96405 0,-3.30345 14.33338,-16.82768 26.1582,-24.68151 5.16456,-3.43021 16.63393,-13.12188 25.48747,-21.53702 8.85355,-8.41516 20.67425,-19.63952 26.26824,-24.94304 18.22915,-17.28259 26.70062,-35.50221 36.04931,-77.53144 10.93977,-49.18232 18.64928,-73.32666 31.79829,-99.58458 9.35851,-18.6885 16.77037,-29.86799 29.21046,-44.05883 15.82019,-18.04663 33.70366,-30.64622 57.07027,-40.20814 20.36994,-8.33564 25.5154,-14.77926 25.5154,-31.95268 0,-14.41819 3.28692,-29.71612 8.49707,-39.54685 5.95743,-11.24076 18.12311,-23.71111 32.14113,-32.94607 16.09856,-10.60559 26.10682,-13.87055 39.5996,-12.91838 5.6704,0.40016 12.25298,1.13173 14.62796,1.62571 3.7046,0.77056 5.99178,-0.1519 16.09735,-6.49233 6.47857,-4.06477 14.66765,-8.35609 18.19796,-9.53627 7.50409,-2.5086 14.37366,-2.79922 14.37366,-0.60808 0,0.84573 -2.73935,4.46628 -6.08745,8.04567 -9.17367,9.80738 -18.21401,30.20596 -14.3696,32.42344 0.55335,0.31917 9.15537,-1.75689 19.11561,-4.61347 18.16369,-5.20932 22.81219,-6.06427 22.79574,-4.19255 -0.0172,1.95979 -5.04463,8.60326 -10.4169,13.76543 -8.80001,8.45583 -11.93634,13.46641 -15.06992,24.07563 -1.62548,5.50332 -8.2174,20.29276 -14.64871,32.86543 -20.88892,40.83608 -32.61518,79.65586 -36.28282,120.11422 -3.73272,41.17636 -6.56971,53.52007 -17.53504,76.29458 -8.16559,16.9596 -15.72022,28.38908 -29.04321,43.93982 -5.57766,6.51032 -13.76835,16.60172 -18.2015,22.42536 -4.43315,5.82364 -10.63028,13.48212 -13.7714,17.01884 -3.14111,3.53674 -6.45526,8.68518 -7.36475,11.44098 -3.59373,10.88912 2.05306,30.7077 10.38726,36.45624 11.66513,8.04605 40.49434,22.25942 52.51573,25.8913 8.57394,2.59035 11.87144,2.88894 24.81676,2.24717 8.26388,-0.40969 19.12125,-1.89622 24.31911,-3.32962 15.13346,-4.17333 49.15831,-18.49081 74.45026,-31.32828 23.06871,-11.70901 29.00979,-13.56522 35.47587,-11.08395 4.88074,1.87291 4.80833,5.17774 -0.33759,15.40856 -6.59508,13.11199 -7.96092,14.89028 -14.68123,19.11471 -6.19685,3.89538 -6.97777,6.04094 -3.35361,9.21393 2.76774,2.42318 58.63385,25.25703 80.82212,33.03397 31.28371,10.96489 62.6544,18.30664 95.79287,22.41858 20.32991,2.52262 126.35751,5.08347 138.11213,3.33578 82.536,-12.27152 125.3099,-19.95309 153.773,-27.61532 35.8885,-9.66115 43.2625,-10.54582 89.2061,-10.70203 l 41.5849,-0.1414 7.3779,-3.54567 c 8.6044,-4.13506 31.5153,-18.66308 35.8499,-22.73278 1.6415,-1.54113 3.9894,-5.43327 5.2175,-8.64917 2.167,-5.67427 2.1383,-6.09455 -0.9723,-14.21843 -2.9266,-7.6432 -3.1929,-10.23813 -3.0623,-29.83446 0.1723,-25.85918 3.2343,-40.88498 11.6939,-57.38427 4.2141,-8.21912 7.0485,-11.87049 12.2815,-15.82139 8.3077,-6.27239 12.1536,-11.32362 16.1327,-21.18898 3.5068,-8.69393 8.3696,-12.63461 11.9373,-9.67366 1.1771,0.9769 2.1401,3.31626 2.1401,5.19857 0,6.47825 -14.8513,92.17001 -16.9902,98.03346 -1.1779,3.22903 -5.5767,9.86919 -9.7751,14.75591 -10.5902,12.3264 -13.7111,22.5984 -8.3421,27.45728 3.3549,3.036 8.5858,2.78959 21.2503,-1.00104 24.4319,-7.31279 25.9409,-9.24014 31.9747,-40.83952 4.1168,-21.55919 9.7359,-31.46455 23.0435,-40.62037 3.1714,-2.182 8.1066,-7.41367 10.9671,-11.62594 9.2471,-13.61697 21.8484,-23.4497 43.424,-33.88337 12.7524,-6.16691 15.3111,-6.46831 17.3284,-2.04104 2.2902,5.02659 0.46,9.29535 -5.3969,12.58706 -6.8523,3.85118 -11.8767,9.6752 -18.2463,21.14976 -2.8356,5.1086 -8.5425,12.93514 -12.6817,17.39228 -4.1393,4.45715 -10.9061,12.92765 -15.0374,18.82333 -8.9251,12.73723 -15.0832,18.42614 -24.4259,22.56504 -8.5665,3.79497 -10.4199,5.98341 -11.2416,13.27382 -0.9205,8.16693 0.9701,9.28443 16.0647,9.49551 10.9512,0.15314 13.1,-0.21951 18.2458,-3.16416 3.44,-1.9686 7.1793,-5.6356 9.1156,-8.93949 4.5514,-7.76659 5.7642,-8.51529 16.1487,-9.96951 5.8495,-0.81915 13.3502,-3.27231 20.8088,-6.80574 14.1376,-6.69748 18.8068,-6.55182 30.0918,0.93878 11.5544,7.66937 16.9937,8.81286 39.8398,8.37557 18.4434,-0.35301 20.028,-0.18974 21.8166,2.24798 2.7874,3.79828 1.7099,5.32384 -4.3418,6.14823 -10.4253,1.42012 -32.0371,14.16814 -45.6308,26.91583 -10.545,9.8889 -14.5048,11.36245 -25.553,9.50898 -5.0076,-0.8401 -14.2358,-1.84071 -20.5071,-2.22361 -15.3522,-0.93734 -27.6701,-4.57683 -37.8355,-11.17894 -10.6886,-6.94192 -17.3003,-7.87955 -35.8131,-5.07873 -16.1973,2.45053 -28.3013,7.28038 -28.3013,11.29308 0,3.23974 2.4668,4.23862 10.506,4.25423 3.4441,0.007 12.8785,1.51295 20.9653,3.34724 8.0869,1.83431 19.4493,3.93019 25.2499,4.65753 16.4184,2.05869 28.2841,6.04874 34.6827,11.66262 1.2086,1.0605 6.6415,4.15933 12.073,6.8863 7.2107,3.62031 9.9883,5.75192 10.294,7.89998 0.3529,2.48019 -0.3838,3.06612 -4.6951,3.73374 -2.8126,0.43555 -12.9612,2.58894 -22.5525,4.7853 -25.5264,5.84539 -34.6266,5.51596 -54.0204,-1.95559 -23.3093,-8.98005 -30.0495,-14.84212 -34.5708,-30.06697 -1.6178,-5.44805 -2.9212,-7.37851 -5.7151,-8.46569 -5.7777,-2.2482 -21.3983,-0.63461 -30.7937,3.18093 -11.4481,4.64909 -43.4791,26.35667 -42.9494,29.10697 0.5975,3.10272 7.7333,5.93728 26.8316,10.65826 9.3901,2.32117 23.8778,6.69884 32.1947,9.72818 27.5214,10.02418 29.6386,10.39687 59.5492,10.48257 44.7932,0.12837 64.751,5.44978 88.539,23.60755 3.977,3.03583 7.5506,4.64158 10.3357,4.64428 2.3414,0.003 8.4825,2.20324 13.6471,4.89103 5.1646,2.6878 12.1065,6.28897 15.4266,8.0026 3.3201,1.71363 8.4678,3.13457 11.4392,3.15764 6.2562,0.0486 11.3654,3.09555 11.3654,6.77805 0,4.02231 -3.3068,4.89968 -25.1559,6.67448 -25.642,2.08291 -39.3385,1.02887 -54.1168,-4.16464 -6.2011,-2.17927 -12.4388,-4.34422 -13.8615,-4.81097 -2.0338,-0.66721 -1.6621,0.30209 1.7385,4.5336 6.5774,8.18466 18.1941,17.68619 29.5027,24.13061 9.5399,5.43661 10.8192,5.80143 20.2757,5.7818 5.5513,-0.0121 13.7152,-0.89549 18.142,-1.96438 13.6138,-3.28718 16.0189,-2.84737 23.6946,4.33287 6.7785,6.34099 6.8661,6.3755 18.0695,7.12271 10.6643,0.71125 11.5222,1.00556 16.2709,5.58165 2.7571,2.65695 7.2545,5.75002 9.9942,6.87348 5.657,2.31976 28.0664,18.74173 33.4859,24.53906 4.342,4.64459 13.1785,21.02971 13.1785,24.43616 0,4.75459 -4.9105,5.36212 -27.5608,3.40983 -30.2107,-2.60391 -44.8449,-5.9108 -60.2084,-13.60516 -11.0646,-5.54149 -16.9332,-7.1164 -31.6195,-8.4854 -25.5957,-2.38593 -28.1546,-4.49341 -28.1998,-23.22432 -0.05,-20.44973 -1.7679,-22.61824 -41.3592,-52.18507 -26.2729,-19.62061 -29.6863,-21.77764 -38.6222,-24.40663 -3.7962,-1.11685 -10.0933,-3.50912 -13.9936,-5.31614 -3.9002,-1.80702 -7.6529,-2.93849 -8.3391,-2.51436 -1.6432,1.01556 0.016,13.24431 2.4303,17.91338 2.2083,4.27026 4.4137,5.31857 11.1892,5.31857 7.1279,0 10.5539,3.02177 13.0117,11.47659 1.3831,4.75727 3.3182,8.14639 5.5177,9.66294 6.6848,4.6093 13.8419,11.38967 16.4081,15.54451 1.437,2.32654 5.3296,12.57208 8.6503,22.76786 3.7345,11.46578 8.6635,23.15577 12.9204,30.64284 7.7301,13.59571 8.4832,19.03044 2.7041,19.51334 -1.8445,0.15414 -5.1645,-0.59392 -7.3779,-1.66234 z m 146.8884,-26.07408 c 0,-2.22381 -13.327,-11.30995 -32.2103,-21.96025 -24.1643,-13.62907 -27.445,-14.6557 -45.0224,-14.0893 -12.1994,0.39311 -14.4751,0.82564 -16.1082,3.0617 -1.0461,1.43216 -1.9019,3.4975 -1.9019,4.58965 0,2.95446 11.6853,13.59884 14.9288,13.59884 2.4712,0 2.705,-0.55159 1.9475,-4.59045 -0.5135,-2.73635 -0.2829,-4.94782 0.5703,-5.47523 2.1727,-1.34283 14.9646,2.97328 32.8577,11.08663 8.8535,4.01451 20.9265,8.51454 26.829,10.00007 5.9023,1.48553 11.637,3.21707 12.7437,3.84785 2.7202,1.55049 5.3658,1.51621 5.3658,-0.0695 z m -171.611,-26.2562 c -3.7459,-10.6577 -10.1091,-20.99094 -18.6835,-30.34013 -6.779,-7.39155 -10.9225,-9.77716 -10.9225,-6.28864 0,3.51263 15.0449,28.36921 24.1102,39.834 7.1404,9.0303 9.3444,7.74486 5.4958,-3.20523 z m -571.73134,-1.58255 c -5.78408,-6.00333 -25.17292,-19.73592 -26.28903,-18.61981 -2.2058,2.2058 13.34802,17.28065 24.45797,23.7048 8.6201,4.98444 9.41252,2.78384 1.83106,-5.08499 z M 551.66598,835.84436 c 0.71954,-1.89251 1.30824,-5.09722 1.30824,-7.12156 0,-2.02434 0.88628,-4.85239 1.96951,-6.28454 1.08322,-1.43216 1.9887,-4.0876 2.01217,-5.90098 0.0555,-4.29551 -8.79436,-13.47102 -12.99304,-13.47102 -3.88114,0 -7.78621,6.0954 -9.7392,15.20185 -1.81646,8.46989 1.07372,15.19803 8.01899,18.66759 6.30532,3.14985 7.88017,2.96746 9.42333,-1.09134 z m 772.43242,-22.85865 c -3.3294,-7.08289 -19.0692,-24.6028 -20.6743,-23.01223 -2.3411,2.32026 11.9402,25.46706 19.9729,32.3715 2.8632,2.46109 2.929,2.45731 3.3307,-0.19159 0.2254,-1.48622 -0.9578,-5.61167 -2.6293,-9.16768 z m -710.1981,5.36366 c 1.16705,-0.44783 2.12189,-1.42263 2.12189,-2.16622 0,-0.74358 -4.60063,-6.07954 -10.22361,-11.8577 -9.89064,-10.16357 -10.19328,-10.66735 -9.29258,-15.4685 1.04403,-5.56515 -0.34383,-7.1995 -6.1424,-7.23329 -5.96276,-0.0347 -7.21749,2.92281 -4.81816,11.35706 4.52166,15.8947 19.08621,28.92537 28.35486,25.36865 z m 853.9402,-21.92608 c 0,-1.64313 -14.1963,-9.9677 -23.9627,-14.0515 -9.8941,-4.13718 -29.1272,-10.15879 -32.4473,-10.15879 -11.0531,0 12.1019,12.78959 37.6297,20.78466 6.2713,1.96409 12.006,3.77807 12.7438,4.03105 2.777,0.9522 6.0365,0.6253 6.0365,-0.60542 z m -901.45336,-6.43821 c 5.60986,-2.80335 8.50013,-8.13446 7.20587,-13.29122 -2.40579,-9.58541 -23.23911,-23.88217 -33.52848,-23.00872 -8.6245,0.73212 -8.80082,3.45252 -1.17549,18.13613 9.08148,17.48764 11.72154,20.51396 17.8934,20.51134 2.70115,-0.001 7.02326,-1.05754 9.6047,-2.34753 z m 823.34956,-15.20864 c 0.2039,-1.05013 -1.3901,-4.01836 -3.542,-6.59608 -3.4207,-4.09738 -4.6819,-4.68676 -10.0292,-4.68676 -7.2799,0 -9.8226,1.86866 -7.7676,5.70851 1.4019,2.61943 4.5255,4.1712 13.59,6.75135 5.6311,1.60284 7.2568,1.35588 7.7488,-1.17702 z m 29.0837,-54.78714 c 0.4244,-0.68682 0.1964,-1.6044 -0.5071,-2.03908 -3.1207,-1.92876 -53.2273,-16.44088 -54.7495,-15.8568 -0.9336,0.35828 -1.6976,1.73781 -1.6976,3.06562 0,3.76553 24.1276,12.98451 39.5727,15.12048 7.8587,1.08683 16.6209,0.94052 17.3815,-0.29022 z m 55.7272,-48.13669 c 9.3413,-3.27598 17.4388,-8.05167 17.4388,-10.28495 0,-2.45599 -4.4572,-3.3383 -16.9709,-3.35926 l -10.9343,-0.0182 -2.8223,-4.78328 c -3.3435,-5.6669 -3.3685,-5.66324 -20.9181,3.06307 -17.5843,8.74356 -18.0963,9.5197 -8.8909,13.47529 14.1853,6.09553 29.2539,6.76245 43.0977,1.90744 z M 1314.0681,644.1049 c 1.2541,-7.37795 4.4105,-22.3809 7.0141,-33.33987 2.6037,-10.95897 4.3447,-20.31462 3.869,-20.79031 -2.3791,-2.37924 -11.536,16.21048 -15.3706,31.20482 -2.9858,11.6753 -3.6706,31.3745 -1.248,35.9013 2.1968,4.10465 3.2291,1.769 5.7355,-12.97594 z m 69.9624,-11.93113 c 2.5818,-3.94027 4.2049,-12.88562 2.3382,-12.88562 -2.3634,0 -8.568,5.61929 -9.8091,8.88391 -2.6106,6.86644 3.4624,10.1194 7.4709,4.00171 z m 21.9025,-29.80226 c 11.7689,-16.18413 9.0294,-16.777 -6.8416,-1.48066 -7.2369,6.97478 -8.9436,10.01263 -6.819,12.13721 2.5462,2.5463 6.0439,-0.1822 13.6606,-10.65655 z M 508.69666,319.32238 c 6.69479,-2.67872 10.74141,-8.13193 10.74141,-14.47505 0,-9.47944 -7.42333,-12.54576 -18.35592,-7.58219 -10.84024,4.92163 -13.3391,19.11868 -4.02561,22.87117 4.21879,1.69979 5.59889,1.60329 11.64012,-0.81393 z m 746.16744,593.11021 c -3.8855,-1.80893 -9.2689,-4.97031 -11.9632,-7.02531 -5.1414,-3.92152 -10.1833,-4.45614 -22.6295,-2.39953 -5.2392,0.86573 -5.7676,0.60002 -14.4473,-7.2659 -4.955,-4.49047 -10.0933,-8.16449 -11.4183,-8.16449 -1.4138,0 -3.6552,2.21701 -5.4249,5.36579 -1.6587,2.95118 -3.4409,5.36578 -3.9606,5.36578 -0.5196,0 -3.8566,2.40614 -7.4155,5.34699 -5.2627,4.349 -6.9441,5.09354 -9.0078,3.98909 -1.3955,-0.74685 -6.9967,-7.22763 -12.4471,-14.40175 -26.4413,-34.80322 -65.2521,-75.28562 -84.3337,-87.96592 -19.2578,-12.79745 -42.7117,-25.25405 -48.979,-26.0132 -5.9207,-0.71718 -9.7497,-3.57501 -7.6108,-5.68045 0.6696,-0.65917 16.0069,-4.84777 34.0829,-9.30798 48.5518,-11.98007 73.7561,-15.78658 80.5286,-12.16198 1.4017,0.75012 5.2251,6.93754 8.4966,13.74982 7.7261,16.08792 17.5074,29.57647 39.7536,54.82085 41.5894,47.19435 54.2512,59.8675 78.81,78.88073 10.8711,8.41627 11.8851,9.80691 10.2527,14.06072 -1.1239,2.92888 -4.0412,2.64557 -12.2867,-1.19326 z M 87.492431,883.66167 c -2.58228,-1.38007 -8.54227,-3.77173 -13.24441,-5.31481 -5.44284,-1.78613 -10.58004,-4.67741 -14.13791,-7.95693 -3.07369,-2.83323 -12.69611,-9.02896 -21.38316,-13.76828 -16.41055,-8.95298 -20.87475,-12.45325 -29.4406297,-23.08374 -2.80352,-3.47924 -6.99304,-7.30622 -9.31004001,-8.50438 -4.04331999,-2.09089 -4.30920999,-2.05938 -6.61127999,0.78355 -2.23895,2.76499 -2.25529,3.2892 -0.24552,7.87978 1.18414,2.70474 4.09991,10.6524 6.47947999,17.66146 2.37956001,7.00906 5.62319001,15.2852 7.20804001,18.39144 3.4359997,6.73436 3.6791997,10.8985 0.70324,12.04047 -2.86342,1.09881 -24.5208103,-6.37466 -41.5922903,-14.35253 -34.9692,-16.34187 -53.27158,-34.56287 -58.0793,-57.82105 -2.81035,-13.5956 0.65186,-26.13892 11.60446,-42.04193 3.9849,-5.78599 4.56626,-7.58711 4.02071,-12.4566 -1.12639,-10.054 -12.67263,-21.11485 -25.765371,-24.68222 -7.41858,-2.02133 -61.80559,-0.57742 -79.74451,2.11712 -12.81318,1.92461 -14.64635,1.91852 -21.7417,-0.0723 -10.88837,-3.05513 -17.99402,-1.71379 -27.93133,5.2726 -9.49969,6.67871 -24.93247,19.51435 -38.90117,32.3546 -5.56285,5.11346 -15.24528,12.58313 -21.51654,16.59928 -7.20078,4.61143 -16.62559,12.5923 -25.57758,21.65898 -7.79641,7.89627 -21.30437,19.68485 -30.01768,26.19682 -11.79391,8.81428 -17.55494,14.18712 -22.54394,21.02487 -3.68585,5.0517 -7.25847,9.18492 -7.93915,9.18492 -0.68069,0 -2.80432,-1.56671 -4.71919,-3.4816 -3.36728,-3.36729 -3.45036,-3.84075 -2.5299,-14.42055 2.6782,-30.78355 3.30767,-42.36426 3.43826,-63.25534 0.0783,-12.54252 0.61923,-28.71722 1.20182,-35.94378 1.25362,-15.55005 3.41669,-19.44927 12.34645,-22.25629 10.78065,-3.38883 11.95149,-4.05806 11.95149,-6.8313 0,-3.41681 -3.38731,-3.52468 -12.21595,-0.38902 -6.44407,2.28874 -6.58208,2.28012 -9.45197,-0.58977 -2.35339,-2.3534 -3.02929,-4.93153 -3.52136,-13.43172 -0.45533,-7.86557 -0.14674,-10.88774 1.22324,-11.97976 1.0077,-0.80326 10.58512,-4.62954 21.28315,-8.50286 10.69803,-3.87332 24.28018,-9.46589 30.18254,-12.42794 17.66763,-8.86634 38.32704,-25.80264 28.45128,-23.32397 -1.70668,0.42833 -14.23925,6.17007 -27.85018,12.75942 -13.61091,6.58933 -27.16173,12.64098 -30.11291,13.44811 -7.75744,2.12162 -16.76808,1.92525 -16.76808,-0.36545 0,-2.64291 2.21262,-4.00805 12.07301,-7.44877 9.25433,-3.22922 21.87774,-9.71786 39.80523,-20.46054 6.03027,-3.61352 16.66013,-8.85314 23.6219,-11.64361 17.88534,-7.16893 23.49127,-10.80761 33.98702,-22.0601 11.7815,-12.63095 19.55072,-27.36204 29.14272,-55.25703 4.05917,-11.80473 12.61383,-35.95076 19.01034,-53.65785 14.22254,-39.37138 20.2206,-57.76608 22.78843,-69.88687 2.68233,-12.66128 2.47009,-31.0019 -0.52628,-45.47749 -4.88134,-23.58196 -8.05503,-27.14121 -22.62043,-25.36845 -17.05932,2.07631 -20.15051,0.74775 -35.40121,-15.21497 -11.49182,-12.02836 -20.85912,-26.40837 -28.00261,-42.98753 -5.29975,-12.30012 -18.75714,-49.04658 -18.75714,-51.21787 0,-0.70046 1.12487,-1.87557 2.49972,-2.61137 2.56586,-1.37321 13.6588,3.54704 68.13187,30.21974 24.43503,11.9646 32.4525,18.45408 36.77788,29.76868 4.30547,11.26253 4.10135,24.23398 -0.54093,34.37405 -1.96746,4.29748 -3.57719,9.83572 -3.57719,12.30719 0,4.9275 11.48675,41.61216 13.39988,42.79453 0.65403,0.40422 3.16961,-2.14353 5.59015,-5.66168 2.42055,-3.51814 8.99032,-11.83076 14.59951,-18.47249 5.6092,-6.64171 12.14615,-14.77163 14.52657,-18.06645 l 4.32804,-5.9906 -0.90875,-15.53629 c -0.96319,-16.46715 0.52666,-25.18485 6.20689,-36.31902 3.53047,-6.92032 15.37116,-19.50043 22.02375,-23.3991 6.37781,-3.73766 40.657311,-18.04671 62.403561,-26.04869 7.97632,-2.93504 20.13117,-8.6784 27.01077,-12.76302 12.67621,-7.52623 16.59093,-8.60801 21.5486703,-5.9547 2.43218,1.30166 2.64446,2.27122 1.83565,8.38404 -1.61599,12.21326 -4.71249,16.72585 -27.7895103,40.49808 -28.37365,29.22848 -35.19267,36.75764 -44.54785,49.1871 -11.48643,15.26111 -19.72473,19.8695 -41.515461,23.22318 -14.68245,2.2597 -20.74032,5.31033 -31.46931,15.84739 -19.73411,19.38105 -30.95415,42.2254 -45.90235,93.45851 -3.76714,12.91142 -12.51556,37.6611 -19.44092,54.99929 -14.18426,35.51144 -18.1549,48.48246 -15.92859,52.0345 2.31648,3.69588 6.73063,3.4296 14.25029,-0.85959 3.8694,-2.20711 16.74619,-7.91781 28.61507,-12.69046 11.86889,-4.77265 23.64008,-9.73508 26.1582,-11.0276 2.51812,-1.29252 11.8222,-9.39991 20.67575,-18.01641 18.93338,-18.42645 35.04981,-29.9131 59.023631,-42.06782 20.36715,-10.32613 35.39905,-21.79509 47.14975,-35.97407 13.06378,-15.76341 23.17796,-25.4004 55.94927,-53.30952 8.71709,-7.42376 36.91839,-28.77252 40.63661,-30.76244 2.34525,-1.25514 3.64758,-0.8581 8.00718,2.44111 3.02143,2.28653 6.89903,3.95571 9.2397,3.97736 4.62566,0.0428 22.143409,-9.46443 44.051369,-23.90752 15.1061,-9.95889 18.13381,-11.03243 21.08516,-7.47626 1.46245,1.76214 1.35296,2.86226 -0.65621,6.59304 -5.16152,9.58436 2.02552,9.88829 16.12809,0.68203 5.65095,-3.68898 11.07174,-6.70723 12.04623,-6.70723 0.97449,0 3.38328,2.11277 5.35289,4.69506 2.2531,2.95398 4.7191,4.69506 6.64989,4.69506 1.68784,0 7.59902,-3.06051 13.13593,-6.80112 8.00866,-5.41047 10.98298,-6.71335 14.54616,-6.37187 3.76884,0.36119 4.479,0.96097 4.479,3.78287 0,2.51328 -1.5126,4.31276 -6.0365,7.18137 -3.32008,2.10528 -15.99675,10.14531 -28.17037,17.86674 -23.67791,15.01831 -45.1562,30.73988 -65.71673,48.10297 -7.01683,5.92562 -17.888899,14.9146 -24.160159,19.97551 -14.5039,11.70467 -27.82402,24.55447 -30.28298,29.21374 -3.94448,7.47407 -1.51318,15.2262 5.99276,19.10766 2.0445,1.05726 11.51535,4.1324 21.04634,6.83366 16.237059,4.60188 67.007669,19.84051 95.878509,28.7776 14.06232,4.35306 22.0319,9.02211 41.80498,24.49185 11.37122,8.89642 22.27861,15.54827 46.65561,28.45282 8.4826,4.49047 11.42369,8.86309 11.3067,16.81003 -0.16514,11.21887 -14.21627,34.88972 -20.71069,34.88972 -5.02535,0 -33.23509,-8.058 -46.26602,-13.2157 -7.37795,-2.92022 -23.67652,-9.96371 -36.21904,-15.65218 -41.91104,-19.00813 -60.23535,-24.4584 -86.523279,-25.7349 -17.23559,-0.83694 -32.2066,0.75056 -53.89629,5.71509 -8.37621,1.91721 -18.51393,3.27853 -24.41537,3.27853 -20.2074697,0 -39.74371,6.2327 -75.76413,24.17126 -33.85733,16.86132 -48.956511,27.92067 -62.235131,45.58393 -9.88181,13.1448 -13.52888,16.239 -27.16154,23.04391 -12.39983,6.18954 -14.65737,7.97557 -29.84717,23.61325 -9.038,9.3045 -16.43272,17.36879 -16.43272,17.92067 0,0.55189 1.37888,2.60646 3.06416,4.56572 l 3.06416,3.56229 27.45374,0.36958 c 15.09956,0.20329 31.07564,-0.18769 35.50242,-0.86884 18.28134,-2.81289 23.8576,-2.79773 35.101091,0.0954 13.81809,3.55566 22.40332,3.56564 31.62492,0.0368 8.7089,-3.33271 20.25986,-11.75447 20.93576,-15.2642 0.26698,-1.38629 -0.27853,-4.83531 -1.21223,-7.66446 -2.55213,-7.73302 -0.52407,-10.72694 11.04921,-16.31146 6.49319,-3.1332 14.81287,-9.08231 24.5728403,-17.5712 23.6755597,-20.59219 54.1349697,-34.82147 80.8221197,-37.75649 7.52139,-0.8272 8.38404,-0.67356 8.38404,1.4931 0,1.32835 -0.84463,3.36818 -1.87695,4.53297 -1.03234,1.16479 -4.72591,9.05978 -8.20797,17.54443 -7.46243,18.18349 -12.36718,25.49622 -20.69354,30.85299 -11.52323,7.41349 -15.58952,10.81238 -22.24772,18.59626 -16.92237,19.78338 -29.4678097,23.73817 -50.95258,16.06213 -5.59811,-2.00007 -9.4965,-2.61075 -12.74373,-1.99627 -5.00487,0.94711 -20.10501,12.27978 -20.10501,15.08887 0,2.22017 16.92534,16.40035 22.42614,18.7888 2.37414,1.03085 7.54652,1.87427 11.49418,1.87427 8.5048303,0 19.6184603,3.07059 27.2333403,7.52433 3.5032897,2.04898 7.5892397,3.20724 11.3141197,3.20724 13.47107,0 20.12746,6.36099 37.21889,35.56716 6.88995,11.77367 11.67781,18.19237 17.76894,23.82139 6.91871,6.39381 8.18053,8.21705 7.41394,10.71272 -0.50808,1.65415 -1.22095,5.72396 -1.58414,9.04404 -0.58771,5.37251 -0.0647,6.92184 4.75505,14.08519 5.83336,8.66987 12.66944,26.85281 11.9642,31.823 -0.56138,3.95644 -4.44751,4.38269 -10.49427,1.15107 z m -118.09691,-47.92452 c -3.78761,-5.79536 -12.58162,-20.58412 -19.54223,-32.86392 -6.96061,-12.27979 -13.51602,-23.04093 -14.56756,-23.91364 -2.92656,-2.42882 -7.83558,-1.09365 -9.71956,2.64353 -4.15188,8.23599 1.06416,34.8776 6.82854,34.8776 2.4844,0 5.67778,-4.02658 6.74303,-8.50242 0.70662,-2.96893 1.29756,-3.48254 2.68346,-2.33234 3.14256,2.6081 10.18518,21.2703 10.18518,26.98969 0,8.82755 1.8124,10.96546 8.46846,9.98945 4.70906,-0.69051 6.37306,-0.26104 10.29703,2.65762 2.57417,1.91468 4.86705,2.92103 5.09527,2.23634 0.22823,-0.68469 -2.68399,-5.98655 -6.47162,-11.78191 z m 89.70297,-4.20373 c -1.57851,-3.68775 -14.40249,-23.95998 -17.64608,-27.89503 -2.15785,-2.61783 -7.07412,-6.53789 -10.92506,-8.71122 -8.70118,-4.91064 -10.75527,-8.76251 -8.08318,-15.15772 2.28038,-5.45772 1.23247,-6.83319 -6.27455,-8.23593 -2.70668,-0.50577 -8.0972097,-3.0112 -11.9789297,-5.56762 -9.41883,-6.20303 -13.31394,-6.85428 -19.2080403,-3.21153 -5.60205,3.46226 -7.93056,9.83637 -6.02801,16.50122 1.31516,4.60721 14.2418003,22.61507 16.8284003,23.44336 2.81255,0.90063 5.85685,-3.75369 5.85685,-8.95437 0,-6.56685 3.39882,-9.93907 6.18166,-6.13328 1.02686,1.40431 1.8670101,3.96642 1.8670101,5.69359 0,4.74689 3.5125696,12.19335 9.4800296,20.0972 6.10049,8.08005 8.82909,8.85481 10.84267,3.07863 0.7716,-2.21338 2.13712,-4.02434 3.03452,-4.02434 0.8974,0 3.70569,2.8029 6.24065,6.22866 5.2857,7.14312 13.86859,13.89304 17.6658,13.89304 1.42637,0 2.3922,-0.4701 2.14626,-1.04466 z m -76.31931,-27.4606 c -3.14219,-2.54441 -6.73642,-2.69494 -7.52853,-0.31532 -0.24935,0.74907 1.2005,2.36546 3.2219,3.59196 2.79137,1.69372 4.11657,1.86375 5.51034,0.70702 1.51575,-1.25797 1.30628,-1.9512 -1.20371,-3.98366 z m -12.64531,-30.57494 c 1.26549,-3.98723 -0.56976,-13.36624 -3.58674,-18.32992 -8.83885,-14.54215 -37.06095,-29.81449 -47.65306,-25.78737 -4.30053,1.63506 -3.94962,2.94086 2.59441,9.65427 3.13563,3.21678 7.4476,7.80961 9.58215,10.20628 2.13455,2.39667 9.18792,7.02287 15.67414,10.28044 8.09693,4.06653 13.15235,7.61422 16.12983,11.31931 4.92115,6.12372 6.03014,6.52961 7.25927,2.65699 z m -329.054301,-3.77146 c 6.11262,-5.31033 14.225,-10.21632 20.06107,-12.132 6.06994,-1.99245 8.31026,-4.53 7.17033,-8.12162 -1.26638,-3.99002 -4.66714,-3.41268 -15.00456,2.54729 -15.80677,9.11328 -23.31652,16.99343 -19.66989,20.64006 1.54427,1.54428 2.90659,1.00732 7.44305,-2.93373 z m 58.63887,-15.10612 c 13.98549,-6.57808 22.75663,-12.81196 45.03452,-32.00721 9.59134,-8.26417 19.70837,-16.63265 22.48229,-18.5966 5.53809,-3.92104 7.86566,-9.18845 4.87653,-11.03584 -2.27993,-1.40908 -5.78083,0.78267 -17.29797,10.82945 -10.36049,9.03778 -24.33524,19.54035 -46.27989,34.78114 -21.56161,14.97475 -31.62363,24.63193 -23.13995,22.20897 1.66004,-0.47412 8.10605,-3.25508 14.32447,-6.17991 z m -46.18381,-21.66493 c 8.53935,-4.28789 15.34433,-9.33474 33.05202,-24.51267 11.75188,-10.07299 16.58148,-15.06031 16.58148,-17.12299 0,-5.58811 -4.53768,-4.03881 -15.8069,5.397 -6.0621,5.07585 -16.61935,13.34408 -23.46051,18.37384 -11.56549,8.50316 -21.76838,18.45618 -21.76838,21.23527 0,1.4651 4.30875,0.19146 11.40229,-3.37045 z M -0.98955871,706.45489 c 6.11322001,-3.11874 6.79058001,-6.06396 1.90642002,-8.28934 -1.87584002,-0.85468 -3.22973001,-2.46669 -3.01373001,-3.58827 0.21569,-1.12004 5.59502,-5.99255 11.9540701,-10.82778 36.2368896,-27.55354 48.2895696,-43.22904 21.0085696,-27.32338 -10.9011,6.35568 -18.57474,12.03121 -36.6359197,27.09642 -8.0981003,6.7548 -15.4783903,12.89688 -16.4006303,13.64908 -2.58191,2.10583 -2.03955,3.87093 2.4894,8.1016 5.05501,4.72209 11.0136103,5.09878 18.69182029,1.18167 z M -312.67288,683.08761 c 5.30555,-2.51269 13.45484,-7.14872 18.10952,-10.30228 10.41091,-7.05342 27.88452,-24.06329 25.59586,-24.91658 -4.39041,-1.63692 -56.07858,31.56622 -60.74542,39.02128 -1.47371,2.35417 -1.25961,2.47622 2.90122,1.65392 2.4708,-0.4883 8.83327,-2.94365 14.13882,-5.45634 z m 50.07322,-0.43706 c 21.42329,-10.78333 51.61504,-33.33013 69.85854,-52.1694 10.62534,-10.97233 14.10725,-15.89276 12.11689,-17.12286 -2.50883,-1.55054 -26.54884,15.74114 -58.52545,42.09664 -10.32914,8.51339 -23.15672,18.97591 -28.50573,23.25003 -5.34902,4.27412 -9.72549,8.04694 -9.72549,8.38403 0,1.80816 5.87716,0.0435 14.78124,-4.43844 z m 51.62034,-78.90109 c 24.94297,-12.73434 66.40158,-39.94353 66.40158,-43.57919 0,-4.13133 -26.74105,5.46 -42.92627,15.39654 -20.02837,12.29598 -40.24338,26.14111 -40.24338,27.56245 0,1.74629 3.93773,5.42848 5.79696,5.42078 0.86954,-0.004 5.80655,-2.16386 10.97111,-4.80058 z m 89.94202,-25.62264 c 15.21861,-15.40459 21.678701,-22.81324 20.72445,-23.76749 -2.54235,-2.54235 -10.98551,3.44571 -25.48464,18.0742 -7.74685,7.81596 -16.6507,15.63034 -19.78633,17.36529 -7.9496,4.39851 -7.92528,10.25028 0.044,10.60318 1.398,0.062 11.57756,-9.19233 24.50245,-22.27518 z m 81.031051,-28.77163 c 10.07497,-3.9401 17.38504,-7.52617 17.09052,-8.38404 -1.09144,-3.17906 -15.93616,-1.60605 -28.76687,3.04825 -12.53333,4.54643 -14.71726,6.69243 -10.79864,10.61105 2.41219,2.41219 3.42696,2.17401 22.47499,-5.27526 z m 161.034839,-27.74238 3.35361,-1.31537 -3.35361,-1.31804 c -6.70803,-2.63637 -42.887639,-7.0066 -57.856449,-6.98863 -16.46706,0.0197 -21.67786,0.81008 -20.90645,3.17074 0.60836,1.86174 15.67434,5.70429 29.12939,7.42939 11.97521,1.53536 44.878479,0.88696 49.633509,-0.97809 z m -153.148349,-4.23125 c 14.06228,-3.60922 32.65853031,-10.50529 35.1010903,-13.01658 1.81054,-1.86149 0.60078,-2.00478 -12.07301,-1.42997 -15.9705203,0.72432 -25.7322103,3.73579 -33.8715203,10.44933 -8.85164,7.30108 -6.05123,8.33339 10.84344,3.99722 z m -43.27984,-8.15643 c 4.30199,-2.95983 5.94284,-4.99695 5.94284,-7.37795 0,-2.6951 -0.66628,-3.28826 -3.68897,-3.28416 -7.19877,0.009 -16.38311,8.10809 -14.56595,12.84354 1.17386,3.05902 5.91673,2.21869 12.31208,-2.18143 z m 44.31086,-31.55248 c 14.28786,-11.48695 26.3251703,-21.44718 26.7495603,-22.13386 0.42439,-0.68668 -0.3792,-1.24851 -1.78575,-1.24851 -2.52471,0 -14.7102403,7.28062 -36.0385103,21.53232 -6.01585,4.01983 -12.8174,8.3431 -15.11457,9.60727 -2.29716,1.26418 -4.53309,3.2274 -4.96876,4.36271 -1.24436,3.24276 0.6678,8.76542 3.03495,8.76542 1.17982,0 13.8352,-9.39841 28.12308,-20.88535 z m 86.21195,-44.41234 c 16.83226,-9.92288 24.87677,-15.59271 32.80984,-23.12465 5.62074,-5.33654 10.29095,-11.74974 10.29095,-14.13167 0,-4.04448 -29.76369,14.2407 -51.90315,31.88643 -8.28836,6.60606 -10.48383,9.45769 -9.05783,11.76501 1.48962,2.41027 5.1419,1.10252 17.86019,-6.39512 z M -206.96728,348.32963 c 3.03105,-3.34927 4.10686,-13.74329 2.16782,-20.94437 -1.74859,-6.49374 -8.74154,-16.62971 -11.47308,-16.62971 -1.24481,0 -2.06957,1.73715 -2.33911,4.92673 -0.229,2.70971 -1.06049,5.13781 -1.84779,5.39579 -0.78731,0.25798 -3.39206,-2.55667 -5.78835,-6.25478 -5.01133,-7.73382 -33.73371,-32.2381 -37.78746,-32.2381 -6.33002,0 -1.90043,6.64166 15.23683,22.84579 11.54144,10.91302 18.36814,19.81042 18.36814,23.93959 0,0.70571 -2.5278,2.1257 -5.61731,3.15554 -3.08951,1.02984 -5.83789,2.53418 -6.1075,3.34299 -1.24943,3.74832 20.14219,15.03298 28.62033,15.09799 2.47305,0.0189 5.12856,-1.04747 6.56748,-2.63746 z m 89.77761,-10.59215 c 22.244101,-11.96535 28.288441,-15.68209 27.611221,-16.97852 -0.79859,-1.52878 -6.72507,-1.53291 -13.922141,-0.009 -8.52629,1.80451 -5.58144,-1.53609 11.998871,-13.61136 16.53139,-11.35482 23.00714,-17.49851 35.19328,-33.38873 9.25086,-12.06271 7.12507,-12.46233 -12.47759,-2.34561 -15.19887,7.84397 -25.28192,16.44296 -41.220231,35.15329 -3.47406,4.07827 -6.77577,6.80839 -7.61017,6.2927 -0.82713,-0.51125 -1.47383,-4.75119 -1.47383,-9.66295 0,-9.95335 -2.51735,-11.33528 -4.35975,-2.39334 -0.59688,2.89696 -3.48202,12.24821 -6.41142,20.78057 -5.80265,16.9012 -6.12015,18.7044 -3.71645,21.1081 2.39907,2.39905 3.16686,2.16741 16.38821,-4.94449 z M 926.64999,752.73904 c -7.55081,-2.89218 -15.17491,-9.15743 -34.72382,-28.53498 -25.72174,-25.49628 -31.78764,-35.64001 -39.87707,-66.6847 -9.93335,-38.12106 -8.78081,-66.16485 4.29365,-104.47383 6.76887,-19.83317 6.92111,-20.62103 6.90002,-35.70728 -0.0268,-19.16956 -3.34,-35.56372 -11.21182,-55.47749 -5.93881,-15.02373 -6.06682,-18.3655 -0.74364,-19.41283 3.5185,-0.69227 20.29047,6.23959 28.72533,11.87217 11.07781,7.39747 12.75392,7.54997 27.96513,2.54428 11.78963,-3.87971 14.89606,-4.35382 28.65003,-4.37261 13.35766,-0.0182 16.86592,0.47295 26.1582,3.66248 13.01913,4.46876 21.25226,9.5664 29.23628,18.102 10.41812,11.13774 14.30442,21.88539 14.36582,39.72838 0.044,13.05556 2.4589,23.93771 7.0371,31.72178 4.2621,7.24655 6.6871,9.46867 21.7989,19.97482 29.785,20.70741 47.6259,42.05723 61.8886,74.06082 7.0669,15.85715 13.1551,35.89537 15.9313,52.43446 1.135,6.76141 2.864,15.2887 3.8421,18.94953 2.1105,7.89806 1.5381,10.9322 -2.57,13.62397 -6.2131,4.0709 -92.7067,20.75982 -134.0913,25.87285 -32.06851,3.96203 -47.19578,4.55955 -53.57481,2.11618 z m 66.67993,-22.44623 c 1.06873,-3.06389 -0.62498,-5.10947 -8.862,-10.70311 -12.7664,-8.66949 -45.88931,-40.58265 -51.07407,-49.20867 -5.72301,-9.52152 -8.83907,-20.41016 -8.83907,-30.88688 0,-12.27526 3.77902,-18.49987 19.99281,-32.93111 17.71685,-15.76911 18.17241,-19.60726 1.92628,-16.23018 -8.68862,1.80608 -9.58524,2.35784 -16.90225,10.40085 -14.34113,15.76411 -18.2307,29.19134 -13.72939,47.39553 4.56669,18.46863 14.37888,34.75439 30.7695,51.06966 9.36656,9.32349 41.6266,32.77072 45.0878,32.77072 0.57494,0 1.30858,-0.75456 1.63039,-1.67681 z M 952.45686,506.33839 c 4.53248,-4.53244 -1.70939,-15.96195 -11.16833,-20.45051 -4.4371,-2.10553 -5.08394,-2.11704 -8.09519,-0.144 -1.9188,1.25724 -3.27277,3.43696 -3.27277,5.26872 0,9.63041 16.80407,21.05802 22.53629,15.32579 z"
         id="path4002"
         inkscape:connector-curvature="0" />
      <text
         xml:space="preserve"
         style="font-size:40px;font-style:normal;font-weight:normal;line-height:125%;letter-spacing:0px;word-spacing:0px;fill:#000000;fill-opacity:1;stroke:none;font-family:Sans"
         x="149.90665"
         y="48.99791"
         id="text2985"
         sodipodi:linespacing="125%"
         transform="matrix(2.016129,0,0,1.7777778,-385.96572,229.28921)"><tspan
           sodipodi:role="line"
           id="tspan2987"
           x="149.90665"
           y="48.99791" /></text>
      <text
         xml:space="preserve"
         style="font-size:106.01953888px;font-style:oblique;font-variant:normal;font-weight:bold;font-stretch:normal;line-height:125%;letter-spacing:0px;word-spacing:0px;fill:#336633;fill-opacity:1;stroke:none;font-family:Purisa;-inkscape-font-specification:Purisa Bold Oblique"
         x="-345.03043"
         y="371.74588"
         id="text2989"
         sodipodi:linespacing="125%"
         transform="scale(1.0649284,0.93903026)"><tspan
           sodipodi:role="line"
           id="tspan2991"
           x="-345.03043"
           y="371.74588">eLearning</tspan></text>
    </g>
  </g>
</svg>
